<?xml version="1.0" encoding="iso-8859-1"?>
<!-- Generator: Adobe Illustrator 16.0.0, SVG Export Plug-In . SVG Version: 6.00 Build 0)  -->
<!DOCTYPE svg PUBLIC "-//W3C//DTD SVG 1.1//EN" "http://www.w3.org/Graphics/SVG/1.1/DTD/svg11.dtd">
<svg version="1.1" id="Capa_1" xmlns="http://www.w3.org/2000/svg" xmlns:xlink="http://www.w3.org/1999/xlink" x="0px" y="0px"
	 width="543.957px" height="543.957px" viewBox="0 0 543.957 543.957" style="enable-background:new 0 0 543.957 543.957;"
	 xml:space="preserve">
<g>
	<path d="M532.808,258.578l-49.193-59.244L413.146,67.41c-6.499-12.164-19.162-19.759-32.95-19.759H163.763
		c-13.783,0-26.457,7.596-32.952,19.759L60.342,199.34l-49.185,59.238C4.035,269.975,0,283.012,0,296.866v170.776
		c0,15.838,12.82,28.664,28.641,28.664h42.501c15.817,0,28.639-12.826,28.639-28.664v-53.927h344.403v53.927
		c0,15.838,12.826,28.664,28.641,28.664h42.497c15.814,0,28.636-12.826,28.636-28.664V296.866
		C543.962,283.012,539.933,269.98,532.808,258.578z M110.925,168.313l38.595-79.612c5.189-10.697,16.048-17.494,27.934-17.494
		h189.054c11.881,0,22.748,6.796,27.925,17.494l38.596,79.612c1.546,3.182,1.34,6.934-0.542,9.929
		c-1.873,2.999-5.154,4.812-8.702,4.812H290.072l69.875-66.829c2.156-2.079,2.246-5.513,0.164-7.677
		c-2.068-2.167-5.497-2.236-7.672-0.167l-78.026,74.63c-0.017,0.01-0.022,0.033-0.039,0.043H120.159
		c-3.537,0-6.82-1.813-8.697-4.812C109.585,175.252,109.382,171.501,110.925,168.313z M124.748,346.919c0,0-47.035,0-62.707,0
		c-11.301,0-20.467-9.165-20.467-20.46c0-11.3,2.44-35.107,13.683-33.997c17.61,1.724,52.076,10.342,69.485,13.555
		c12.72,2.353,20.452,9.149,20.452,20.442C145.194,337.748,136.039,346.919,124.748,346.919z M345.534,339.121
		c-1.368,4.225-5.306,7.087-9.74,7.087H208.177c-4.438,0-8.377-2.862-9.751-7.087c-3.808-11.742-10.971-34.5-10.971-39.759
		c0-7.139,5.795-12.947,12.955-12.947h143.136c7.157,0,12.956,5.795,12.956,12.947C356.501,304.621,349.343,327.379,345.534,339.121
		z M481.919,346.919c-15.678,0-62.707,0-62.707,0c-11.295,0-20.455-9.165-20.46-20.46c0-11.3,7.751-18.095,20.46-20.442
		c17.411-3.213,51.874-11.831,69.491-13.555c11.229-1.105,13.676,22.704,13.676,33.997
		C502.384,337.748,493.224,346.919,481.919,346.919z"/>
</g>
<g>
</g>
<g>
</g>
<g>
</g>
<g>
</g>
<g>
</g>
<g>
</g>
<g>
</g>
<g>
</g>
<g>
</g>
<g>
</g>
<g>
</g>
<g>
</g>
<g>
</g>
<g>
</g>
<g>
</g>
</svg>
